# xmcd
#
# Track frame offsets: 
#        150
#        18453
#        24196
#        46637
#        65387
#        83589
#        106903
#        126224
#        143773
#        159146
#        174742
#        189270
#        221564
#
# Disc length: 4440 seconds
#
# Revision: 0
# Processed by: cddbd v1.5.2PL0 Copyright (c) Steve Scherf et al.
# Submitted via: ExactAudioCopy v1.0b1
#
DISCID=9911560d
DTITLE=Dewa 19 - Republik Cinta
DYEAR=2005
DGENRE=Pop
TTITLE0=Laskar Cinta Chapter One
TTITLE1=Laskar Cinta Chapter Two
TTITLE2=Emotional Love Song
TTITLE3=Larut
TTITLE4=Sedang Ingin Bercinta
TTITLE5=Perasaanku Tentang Perasaanku Kepadamu
TTITLE6=Lelaki Pecemburu
TTITLE7=Lover's Rhapsody
TTITLE8=I Want To Break Free
TTITLE9=Flower In The Desert
TTITLE10=Live On
TTITLE11=Selimut Hati
TTITLE12=Hidden Track
EXTD=
EXTT0=
EXTT1=
EXTT2=
EXTT3=
EXTT4=
EXTT5=
EXTT6=
EXTT7=
EXTT8=
EXTT9=
EXTT10=
EXTT11=
EXTT12=
PLAYORDER=
